<svg width="21" height="20" viewBox="0 0 21 20" fill="none" xmlns="http://www.w3.org/2000/svg">
<path d="M15.3227 6.66665H14.4893V4.99998C14.4893 2.69998 12.6227 0.833313 10.3227 0.833313C8.02267 0.833313 6.15601 2.69998 6.15601 4.99998V6.66665H5.32267C4.40601 6.66665 3.65601 7.41665 3.65601 8.33331V16.6666C3.65601 17.5833 4.40601 18.3333 5.32267 18.3333H15.3227C16.2393 18.3333 16.9893 17.5833 16.9893 16.6666V8.33331C16.9893 7.41665 16.2393 6.66665 15.3227 6.66665ZM10.3227 14.1666C9.40601 14.1666 8.65601 13.4166 8.65601 12.5C8.65601 11.5833 9.40601 10.8333 10.3227 10.8333C11.2393 10.8333 11.9893 11.5833 11.9893 12.5C11.9893 13.4166 11.2393 14.1666 10.3227 14.1666ZM12.906 6.66665H7.73934V4.99998C7.73934 3.57498 8.89767 2.41665 10.3227 2.41665C11.7477 2.41665 12.906 3.57498 12.906 4.99998V6.66665Z" fill="#A5B0C1"/>
</svg>
