<svg width="150" height="135" viewBox="0 0 150 135" fill="none" xmlns="http://www.w3.org/2000/svg">
    <circle opacity="0.1" cx="81.8228" cy="67.5" r="67.5" fill="url(#paint0_linear)" />
    <path fill-rule="evenodd" clip-rule="evenodd"
        d="M76.7458 66.5012C64.9663 66.5012 55.417 74.8799 55.417 85.2155V85.2633C55.417 95.5989 64.9663 103.978 76.7458 103.978H108.2C109.374 103.978 110.527 103.894 111.651 103.734L117.744 108.898C117.91 109.039 118.131 109.117 118.362 109.117C118.853 109.117 119.251 108.768 119.251 108.338L119.251 101.273C125.412 97.9914 129.528 92.0491 129.528 85.2633V85.2155C129.528 74.8799 119.979 66.5012 108.2 66.5012H76.7458Z"
        fill="#1D4885" />
    <path
        d="M81.9192 21.6649H37.0081C20.1801 21.6649 6.53833 33.6344 6.53833 48.3996C6.53833 63.1648 20.1801 75.1343 37.0081 75.1343H81.9192C98.7472 75.1343 112.389 63.1648 112.389 48.3996C112.389 33.6344 98.7472 21.6649 81.9192 21.6649Z"
        fill="url(#paint1_linear)" />
    <path fill-rule="evenodd" clip-rule="evenodd"
        d="M21.2178 67.3577V81.3535C21.2178 81.9688 21.7862 82.4675 22.4873 82.4675C22.8162 82.4675 23.1322 82.3555 23.3689 82.1552L35.0906 72.2316L21.2178 67.3577Z"
        fill="url(#paint2_linear)" />
    <path
        d="M39.0712 51.7415C41.7882 51.7415 43.9908 49.8089 43.9908 47.4249C43.9908 45.041 41.7882 43.1084 39.0712 43.1084C36.3542 43.1084 34.1516 45.041 34.1516 47.4249C34.1516 49.8089 36.3542 51.7415 39.0712 51.7415Z"
        fill="white" />
    <path
        d="M59.2257 51.7415C61.9428 51.7415 64.1453 49.8089 64.1453 47.4249C64.1453 45.041 61.9428 43.1084 59.2257 43.1084C56.5087 43.1084 54.3062 45.041 54.3062 47.4249C54.3062 49.8089 56.5087 51.7415 59.2257 51.7415Z"
        fill="white" />
    <path
        d="M79.8561 51.7415C82.5732 51.7415 84.7757 49.8089 84.7757 47.4249C84.7757 45.041 82.5732 43.1084 79.8561 43.1084C77.1391 43.1084 74.9365 45.041 74.9365 47.4249C74.9365 49.8089 77.1391 51.7415 79.8561 51.7415Z"
        fill="white" />
    <defs>
        <linearGradient id="paint0_linear" x1="175.906" y1="-204.224" x2="74.7292" y2="149.495"
            gradientUnits="userSpaceOnUse">
            <stop stop-color="#5498FF" />
            <stop offset="0.515625" stop-color="#428EFF" />
            <stop offset="1" stop-color="#297FFF" />
        </linearGradient>
        <linearGradient id="paint1_linear" x1="133.232" y1="-59.2221" x2="111.781" y2="89.2381"
            gradientUnits="userSpaceOnUse">
            <stop stop-color="#5498FF" />
            <stop offset="0.515625" stop-color="#428EFF" />
            <stop offset="1" stop-color="#297FFF" />
        </linearGradient>
        <linearGradient id="paint2_linear" x1="37.8223" y1="44.5" x2="25.6597" y2="83.5398"
            gradientUnits="userSpaceOnUse">
            <stop stop-color="#5498FF" />
            <stop offset="0.515625" stop-color="#428EFF" />
            <stop offset="1" stop-color="#297FFF" />
        </linearGradient>
    </defs>
</svg>