<svg width="25" height="24" viewBox="0 0 25 24" fill="none" xmlns="http://www.w3.org/2000/svg">
<path d="M3.32275 6H5.32275H21.3228" stroke="#E83F5B" stroke-width="2" stroke-linecap="round" stroke-linejoin="round"/>
<path d="M8.32275 6V4C8.32275 3.46957 8.53347 2.96086 8.90854 2.58579C9.28361 2.21071 9.79232 2 10.3228 2H14.3228C14.8532 2 15.3619 2.21071 15.737 2.58579C16.112 2.96086 16.3228 3.46957 16.3228 4V6M19.3228 6V20C19.3228 20.5304 19.112 21.0391 18.737 21.4142C18.3619 21.7893 17.8532 22 17.3228 22H7.32275C6.79232 22 6.28361 21.7893 5.90854 21.4142C5.53347 21.0391 5.32275 20.5304 5.32275 20V6H19.3228Z" stroke="#E83F5B" stroke-width="2" stroke-linecap="round" stroke-linejoin="round"/>
</svg>
