<svg width="53" height="52" viewBox="0 0 53 52" fill="none" xmlns="http://www.w3.org/2000/svg">
<circle cx="26.3228" cy="26" r="26" fill="#3485FF"/>
<path d="M34.3228 35V33C34.3228 31.9391 33.9013 30.9217 33.1512 30.1716C32.401 29.4214 31.3836 29 30.3228 29H22.3228C21.2619 29 20.2445 29.4214 19.4943 30.1716C18.7442 30.9217 18.3228 31.9391 18.3228 33V35" stroke="#FAFAFA" stroke-width="2" stroke-linecap="round" stroke-linejoin="round"/>
<path d="M26.3228 25C28.5319 25 30.3228 23.2091 30.3228 21C30.3228 18.7909 28.5319 17 26.3228 17C24.1136 17 22.3228 18.7909 22.3228 21C22.3228 23.2091 24.1136 25 26.3228 25Z" stroke="#FAFAFA" stroke-width="2" stroke-linecap="round" stroke-linejoin="round"/>
</svg>
